<svg data-v-0dd9719b="" version="1.0" xmlns="http://www.w3.org/2000/svg" xmlns:xlink="http://www.w3.org/1999/xlink" width="100%" height="100%" viewBox="0 0 340.000000 250.000000" preserveAspectRatio="xMidYMid meet" color-interpolation-filters="sRGB" style="margin: auto;"> <rect data-v-0dd9719b="" x="0" y="0" width="100%" height="100%" fill="#fff" fill-opacity="1" class="background"></rect> <rect data-v-0dd9719b="" x="0" y="0" width="100%" height="100%" fill="url(#watermark)" fill-opacity="1" class="watermarklayer"></rect> <g data-v-0dd9719b="" fill="#333" class="icon-text-wrapper icon-svg-group iconsvg" transform="translate(49.26499938964844,95.01139640808105)"><g class="iconsvg-imagesvg" transform="translate(0,0)"><g><rect fill="#333" fill-opacity="0" stroke-width="2" x="0" y="0" width="60" height="59.977208660708925" class="image-rect"></rect> <svg x="0" y="0" width="60" height="59.977208660708925" filtersec="colorsb6769370423" class="image-svg-svg primary" style="overflow: visible;"><svg xmlns="http://www.w3.org/2000/svg" viewBox="-0.024392234161496162 -0.00439166696742177 206.4888916015625 206.41061401367188"><title>资源 7</title><g fill-rule="evenodd"><path d="M176.24 176.18a102.91 102.91 0 0 1-76.44 30.16c-8.75-.29-10.94-10.72-6.79-17 17.92-27.07 75.72-28.09 101.23-60a56.23 56.23 0 0 0 10.57-21.88c.56-2.21 1.26-4.67 1.63-6.42a102.92 102.92 0 0 1-30.2 75.1z" fill="#03b2de" opacity=".48"></path><path d="M176.18 176.24a102.92 102.92 0 0 0 30.16-76.44c-.29-8.76-10.73-10.94-17-6.79C168.21 107 163 145.3 146.5 173.56c-9.44 16.21-25.92 31.19-45.38 32.82a102.78 102.78 0 0 0 75.06-30.14z" fill="#8e03ff" opacity=".48"></path><path d="M30.22 30.28A102.94 102.94 0 0 1 106.66.12c8.77.29 10.94 10.73 6.79 17-17.91 27.07-75.72 28.09-101.23 60A56.23 56.23 0 0 0 1.65 99c-.56 2.17-1.25 4.63-1.65 6.38a102.93 102.93 0 0 1 30.2-75.1z" fill="#00deb9" opacity=".48"></path><path d="M30.28 30.22A102.94 102.94 0 0 0 .12 106.66c.29 8.77 10.73 10.94 17 6.79 27.07-17.91 28.09-75.72 60-101.23A56.23 56.23 0 0 1 99 1.65c2.21-.56 4.67-1.25 6.42-1.63a102.93 102.93 0 0 0-75.1 30.2z" fill="#1d88e1" opacity=".48"></path><path d="M44 187.8c-32.11-55.4 181.83-82.46 145-142a103.71 103.71 0 0 0-26.5-27.07c25.84 44.36-100 69.18-138.89 106.54C12.3 136.12 10.9 151.63 20 164.34a103.82 103.82 0 0 0 24 23.46z" fill="#8e03ff" opacity=".48"></path><path d="M187.75 44c-51.41-29.78-77.2 148.08-127.43 150-4.47.18-9.6-2-14.56-5a103.71 103.71 0 0 1-27.07-26.5C71.5 193.28 96.63 9 148.17 12.54c4.69.32 10.6 3.57 16.11 7.51a104.32 104.32 0 0 1 23.47 24z" fill="#1d88e1" opacity=".48"></path></g></svg></svg> <!----></g></g> <g transform="translate(67,2.037353515625)"><g data-gra="path-name" fill-rule="" class="tp-name iconsvg-namesvg" transform="translate(0,0)"><g transform="scale(1)"><g><path d="M38.97-13.41L25.92-13.41 25.92-0.77Q25.92 3.96 21.2 3.96L21.2 3.96 14.22 3.96 14.22 1.03 19.39 1.03Q20.97 1.03 20.97-0.54L20.97-0.54 20.97-13.41 5.76-13.41 5.76-16.34 6.61-16.34Q9.9-19.84 12.78-27.04L12.78-27.04 2.88-27.04 2.88-29.97 13.86-29.97Q15.07-33.66 15.57-36.23L15.57-36.23 20.97-36.23Q20.38-33.03 19.21-29.97L19.21-29.97 42.16-29.97 42.16-27.72Q42.16-27.45 41.96-27.25 41.76-27.04 41.49-27.04L41.49-27.04 17.95-27.04Q15.25-21.29 11.07-16.34L11.07-16.34 20.97-16.34 20.97-24.52 25.92-24.52 25.92-16.34 39.64-16.34 39.64-14.08Q39.64-13.81 39.44-13.61 39.24-13.41 38.97-13.41L38.97-13.41ZM9.72-11.12L14.67-11.12Q13.68-6.97 11.81-4.21 9.95-1.44 7.63 0.2 5.31 1.84 2.29 3.15L2.29 3.15 2.29 0Q4.37-1.62 5.65-2.97 6.93-4.32 7.94-6.28 8.96-8.23 9.72-11.12L9.72-11.12ZM35.32-11.12Q36.09-8.23 37.1-6.28 38.12-4.32 39.4-2.97 40.68-1.62 42.75 0L42.75 0 42.75 3.15Q39.73 1.84 37.42 0.2 35.1-1.44 33.23-4.21 31.36-6.97 30.38-11.12L30.38-11.12 35.32-11.12ZM78.75-32.09L87.3-32.09 87.3-29.83Q87.3-29.56 87.1-29.36 86.89-29.16 86.63-29.16L86.63-29.16 78.75-29.16 78.75-26.19Q78.75-25.92 78.55-25.72 78.34-25.52 78.07-25.52L78.07-25.52 73.8-25.52 73.8-29.16 61.42-29.16 61.42-26.23Q61.42-25.96 61.22-25.76 61.02-25.56 60.75-25.56L60.75-25.56 56.48-25.56 56.48-29.16 47.52-29.16 47.52-32.09 56.48-32.09 56.48-36.23 61.42-36.23 61.42-32.09 73.8-32.09 73.8-36.23 78.75-36.23 78.75-32.09ZM66.51-23.85Q65.2-26.19 63.36-28.21L63.36-28.21 68.31-28.21Q68.98-27.22 69.44-26.28 69.88-25.33 70.52-23.85L70.52-23.85 85.95-23.85 85.95-17.46Q85.95-17.19 85.75-16.99 85.55-16.79 85.28-16.79L85.28-16.79 81-16.79 81-20.93 53.87-20.93 53.87-17.46Q53.87-17.19 53.66-16.99 53.46-16.79 53.19-16.79L53.19-16.79 48.91-16.79 48.91-23.85 66.51-23.85ZM79.2-14.31L54.49-14.31 54.49-17.23 79.88-17.23 79.88-14.98Q79.88-14.71 79.67-14.51 79.47-14.31 79.2-14.31L79.2-14.31ZM48.24-7.38L48.24-10.3 86.81-10.3 86.81-8.05Q86.81-7.79 86.6-7.58 86.4-7.38 86.13-7.38L86.13-7.38 74.56-7.38 74.56-0.36Q74.56 1.44 76.36 1.44L76.36 1.44 80.32 1.44Q81.77 1.44 81.9-0.14L81.9-0.14 82.35-4.91Q82.39-5.17 82.57-5.38 82.75-5.58 83.03-5.58L83.03-5.58 86.4-5.58 85.95 0.54Q85.81 2.43 84.89 3.26 83.97 4.09 81.94 4L81.94 4 73.8 4Q69.61 4 69.61-0.18L69.61-0.18 69.61-7.38 63.45-7.38 63.45-7.11Q63.45-3.28 61.09-0.7 58.73 1.89 55.17 3.19 51.62 4.5 47.84 4.72L47.84 4.72 47.84 1.8Q52.02 1.03 55.24-1.24 58.45-3.51 58.5-7.38L58.5-7.38 48.24-7.38ZM132.48-22.18Q132.48-21.91 132.28-21.71 132.07-21.51 131.81-21.51L131.81-21.51 115.33-21.51Q116.33-16.47 119.5-11.47 122.67-6.48 126.38-2.86 130.09 0.77 132.48 1.75L132.48 1.75 132.48 4.68Q129.96 4.05 126.11 1.57 122.27-0.9 118.51-4.79 114.75-8.69 112.5-13.23L112.5-13.23Q110.25-8.69 106.49-4.79 102.73-0.9 98.89 1.57 95.04 4.05 92.52 4.68L92.52 4.68 92.52 1.75Q94.91 0.77 98.62-2.86 102.33-6.48 105.5-11.47 108.67-16.47 109.66-21.51L109.66-21.51 92.56-21.51 92.56-24.43 110.03-24.43 110.03-25.24 110.03-35.87 114.97-35.87 114.97-25.24 114.97-24.43 132.48-24.43 132.48-22.18ZM163.8-29.29L163.35-1.26Q163.31 3.46 158.63 3.46L158.63 3.46 153.68 3.46 153.68 0.54 157.05 0.54Q158.63 0.54 158.63-1.03L158.63-1.03 159.03-26.37 157.05-26.37 157.05-22.99Q157.05-14.13 155.86-8.8 154.66-3.46 152.46-0.52 150.25 2.43 146.61 4.72L146.61 4.72 146.61 1.8Q148.68-0.63 149.78-3.1 150.88-5.58 151.49-10.51 152.1-15.43 152.1-24.39L152.1-24.39 152.1-26.37 149.99-26.37 149.99-29.29 152.1-29.29 152.1-36.23 157.05-36.23 157.05-29.29 163.8-29.29ZM176.76-32.31L176.76-1.8Q176.76 2.92 172.03 2.92L172.03 2.92 164.66 2.92 164.66-32.31 176.76-32.31ZM149.35-4.27Q149.35 0.45 144.63 0.45L144.63 0.45 137.84 0.45 137.84-32.13 149.35-32.13 149.35-4.27ZM170.46 0Q172.03 0 172.03-1.57L172.03-1.57 172.03-29.38 169.38-29.38 169.38 0 170.46 0ZM143.06-2.48Q144.63-2.48 144.63-4.05L144.63-4.05 144.63-29.2 142.6-29.2 142.6-2.48 143.06-2.48Z" transform="translate(-2.2899999618530273, 36.22999954223633)"></path></g> <!----> <!----> <!----> <!----> <!----> <!----> <!----></g></g> <g data-gra="path-slogan" fill-rule="" class="tp-slogan iconsvg-slogansvg" fill="#333" transform="translate(5,46.95000076293945)"><rect x="0" height="1" y="3.9750003814697266" width="26.62000274658203"></rect> <rect height="1" y="3.9750003814697266" width="26.62000274658203" x="137.8499984741211"></rect> <g transform="translate(29.62000274658203,0)"><g transform="scale(1)"><path d="M4.41 0L0.94 0L0.94-8.58L4.45-8.58Q7.92-8.39 8.06-4.41L8.06-4.41Q7.88-0.09 4.41 0L4.41 0ZM4.27-7.64L2.11-7.64L2.11-0.98L4.36-0.98Q6.80-1.13 6.89-4.31L6.89-4.31Q6.84-7.55 4.27-7.64L4.27-7.64ZM16.31-4.27L16.31-4.27Q16.13-7.64 13.31-7.83L13.31-7.83Q10.45-7.69 10.31-4.27L10.31-4.27Q10.45-0.94 13.31-0.80L13.31-0.80Q16.13-0.98 16.31-4.27ZM17.48-4.27L17.48-4.27Q17.20 0 13.31 0.14L13.31 0.14Q9.38 0 9.09-4.27L9.09-4.27Q9.33-8.72 13.31-8.81L13.31-8.81Q17.20-8.67 17.48-4.27ZM20.25-8.58L24.56-1.64L24.56-8.58L25.69-8.58L25.69 0L24.38 0L20.02-6.94L19.97-6.94L19.97 0L18.84 0L18.84-8.58L20.25-8.58ZM33.89-3.61L31.27-3.61L31.27-4.59L35.02-4.59L35.02 0L34.27 0L33.98-1.08Q33 0.09 31.17 0.14L31.17 0.14Q29.44 0.14 28.50-0.75L28.50-0.75Q27.09-2.06 27.14-4.36L27.14-4.36Q27.47-8.63 31.22-8.81L31.22-8.81Q34.41-8.63 34.88-6L34.88-6L33.75-6Q33.28-7.78 31.17-7.83L31.17-7.83Q28.50-7.64 28.36-4.31L28.36-4.31Q28.36-0.75 31.22-0.75L31.22-0.75Q32.25-0.75 33-1.31L33-1.31Q33.94-2.06 33.89-3.61L33.89-3.61ZM43.22-3.61L40.59-3.61L40.59-4.59L44.34-4.59L44.34 0L43.59 0L43.31-1.08Q42.33 0.09 40.50 0.14L40.50 0.14Q38.77 0.14 37.83-0.75L37.83-0.75Q36.42-2.06 36.47-4.36L36.47-4.36Q36.80-8.63 40.55-8.81L40.55-8.81Q43.73-8.63 44.20-6L44.20-6L43.08-6Q42.61-7.78 40.50-7.83L40.50-7.83Q37.83-7.64 37.69-4.31L37.69-4.31Q37.69-0.75 40.55-0.75L40.55-0.75Q41.58-0.75 42.33-1.31L42.33-1.31Q43.27-2.06 43.22-3.61L43.22-3.61ZM51.80-3.19L51.80-8.58L52.97-8.58L52.97-3.05Q52.83 0.05 49.45 0.14L49.45 0.14Q46.31 0.05 46.17-2.86L46.17-2.86L46.17-8.58L47.34-8.58L47.34-3.19Q47.39-0.84 49.50-0.80L49.50-0.80Q51.80-0.84 51.80-3.19L51.80-3.19ZM60.42 0L59.58-2.48L56.11-2.48L55.22 0L54.05 0L57.28-8.58L58.59-8.58L61.69 0L60.42 0ZM57.84-7.31L56.48-3.52L59.16-3.52L57.89-7.31L57.84-7.31ZM64.13-8.58L68.44-1.64L68.44-8.58L69.56-8.58L69.56 0L68.25 0L63.89-6.94L63.84-6.94L63.84 0L62.72 0L62.72-8.58L64.13-8.58ZM78.19 0L74.72 0L74.72-8.58L78.23-8.58Q81.70-8.39 81.84-4.41L81.84-4.41Q81.66-0.09 78.19 0L78.19 0ZM78.05-7.64L75.89-7.64L75.89-0.98L78.14-0.98Q80.58-1.13 80.67-4.31L80.67-4.31Q80.63-7.55 78.05-7.64L78.05-7.64ZM88.97 0L88.13-2.48L84.66-2.48L83.77 0L82.59 0L85.83-8.58L87.14-8.58L90.23 0L88.97 0ZM86.39-7.31L85.03-3.52L87.70-3.52L86.44-7.31L86.39-7.31ZM93.80-4.31L92.44-3.05L92.44 0L91.27 0L91.27-8.58L92.44-8.58L92.44-4.41L96.61-8.58L98.25-8.58L94.64-5.11L98.34 0L96.80 0L93.80-4.31ZM104.91 0L104.06-2.48L100.59-2.48L99.70 0L98.53 0L101.77-8.58L103.08-8.58L106.17 0L104.91 0ZM102.33-7.31L100.97-3.52L103.64-3.52L102.38-7.31L102.33-7.31Z" transform="translate(-0.9375, 8.8125)"></path></g></g></g></g></g><defs v-gra="od"></defs></svg>